<svg width="45" height="45" viewBox="0 0 45 45" fill="none" xmlns="http://www.w3.org/2000/svg">
<path d="M13.6875 7.81608V10.7536H41.5938V16.5685L38.335 26.9098H12.7633L9.09141 0.46875H0.46875V3.40625H6.53359L10.2055 29.8473H40.4893L44.5312 17.0203V7.81608H13.6875ZM15.2466 32.8128C13.689 32.8146 12.1957 33.4341 11.0943 34.5355C9.99289 35.6369 9.37335 37.1302 9.37158 38.6878C9.37158 40.246 9.99055 41.7403 11.0923 42.8421C12.1941 43.9439 13.6884 44.5628 15.2466 44.5628C16.8047 44.5628 18.2991 43.9439 19.4008 42.8421C20.5026 41.7403 21.1216 40.246 21.1216 38.6878C21.1199 37.1302 20.5004 35.6369 19.399 34.5355C18.2975 33.434 16.8042 32.8145 15.2466 32.8128ZM15.2466 41.6253C14.6656 41.6253 14.0977 41.453 13.6146 41.1303C13.1315 40.8075 12.755 40.3487 12.5327 39.812C12.3104 39.2752 12.2522 38.6846 12.3655 38.1147C12.4789 37.5449 12.7586 37.0215 13.1695 36.6107C13.5803 36.1999 14.1037 35.9201 14.6735 35.8068C15.2433 35.6934 15.834 35.7516 16.3707 35.9739C16.9075 36.1963 17.3662 36.5728 17.689 37.0558C18.0118 37.5389 18.1841 38.1068 18.1841 38.6878C18.1831 39.4666 17.8733 40.2132 17.3226 40.7639C16.772 41.3146 16.0254 41.6244 15.2466 41.6253ZM35.8091 32.8128C34.2515 32.8146 32.7582 33.4341 31.6568 34.5355C30.5554 35.6369 29.9359 37.1302 29.9341 38.6878C29.9341 40.246 30.553 41.7403 31.6548 42.8421C32.7566 43.9439 34.2509 44.5628 35.8091 44.5628C37.3672 44.5628 38.8616 43.9439 39.9633 42.8421C41.0651 41.7403 41.6841 40.246 41.6841 38.6878C41.6824 37.1302 41.0629 35.6369 39.9615 34.5355C38.86 33.434 37.3667 32.8145 35.8091 32.8128ZM35.8091 41.6253C35.2281 41.6253 34.6602 41.453 34.1771 41.1303C33.694 40.8075 33.3175 40.3487 33.0952 39.812C32.8728 39.2752 32.8147 38.6846 32.928 38.1147C33.0414 37.5449 33.3211 37.0215 33.732 36.6107C34.1428 36.1999 34.6662 35.9201 35.236 35.8068C35.8058 35.6934 36.3965 35.7516 36.9332 35.9739C37.47 36.1963 37.9287 36.5728 38.2515 37.0558C38.5743 37.5389 38.7466 38.1068 38.7466 38.6878C38.7456 39.4666 38.4358 40.2132 37.8851 40.7639C37.3345 41.3146 36.5879 41.6244 35.8091 41.6253Z" fill="black"/>
</svg>
