<svg width="36" height="37" viewBox="0 0 36 37" fill="none" xmlns="http://www.w3.org/2000/svg">
<path d="M10.5107 18.5C10.5107 18.1934 10.6293 17.8993 10.8402 17.6824C11.0512 17.4656 11.3374 17.3438 11.6357 17.3438H16.8752V11.9587C16.8752 11.6521 16.9938 11.358 17.2047 11.1411C17.4157 10.9243 17.7019 10.8025 18.0002 10.8025C18.2986 10.8025 18.5848 10.9243 18.7957 11.1411C19.0067 11.358 19.1252 11.6521 19.1252 11.9587V17.3438H24.3647C24.6631 17.3438 24.9493 17.4656 25.1602 17.6824C25.3712 17.8993 25.4897 18.1934 25.4897 18.5C25.4897 18.8067 25.3712 19.1008 25.1602 19.3176C24.9493 19.5345 24.6631 19.6563 24.3647 19.6563H19.1252V25.0413C19.1252 25.348 19.0067 25.6421 18.7957 25.8589C18.5848 26.0758 18.2986 26.1976 18.0002 26.1976C17.7019 26.1976 17.4157 26.0758 17.2047 25.8589C16.9938 25.6421 16.8752 25.348 16.8752 25.0413V19.6563H11.6357C11.3374 19.6563 11.0512 19.5345 10.8402 19.3176C10.6293 19.1008 10.5107 18.8067 10.5107 18.5Z" fill="black"/>
<path fill-rule="evenodd" clip-rule="evenodd" d="M10.9755 5.81059C15.6442 5.27863 20.3558 5.27863 25.0245 5.81059C27.765 6.12509 29.9775 8.34355 30.2985 11.1756C30.8535 16.0426 30.8535 20.959 30.2985 25.8261C29.976 28.6581 27.7635 30.875 25.0245 31.1911C20.3558 31.723 15.6442 31.723 10.9755 31.1911C8.23499 30.875 6.02249 28.6581 5.70149 25.8261C5.14898 20.9591 5.14898 16.0426 5.70149 11.1756C6.02249 8.34355 8.23649 6.12509 10.9755 5.81059ZM24.7755 8.10768C20.2723 7.59465 15.7277 7.59465 11.2245 8.10768C10.3909 8.20273 9.61275 8.58386 9.01586 9.18949C8.41898 9.79512 8.03818 10.5899 7.93499 11.4454C7.40149 16.1335 7.40149 20.8696 7.93499 25.5578C8.0385 26.413 8.41943 27.2074 9.01629 27.8128C9.61314 28.4181 10.3911 28.799 11.2245 28.894C15.69 29.4058 20.31 29.4058 24.7755 28.894C25.6086 28.7987 26.3862 28.4176 26.9828 27.8123C27.5793 27.207 27.9601 26.4128 28.0635 25.5578C28.597 20.8696 28.597 16.1335 28.0635 11.4454C27.9597 10.5907 27.5789 9.7968 26.9824 9.19181C26.3858 8.58683 25.6084 8.206 24.7755 8.11076" fill="black"/>
</svg>
