<svg width="24" height="23" viewBox="0 0 24 23" fill="none" xmlns="http://www.w3.org/2000/svg">
<path d="M23.4931 4.64863L16.4141 0.414062C15.6833 1.63397 14.0654 2.48527 12.1784 2.48527C10.2914 2.48527 8.67342 1.63397 7.94262 0.414062L0.863647 4.64863C0.576417 4.82415 0.46007 5.24542 0.601867 5.59208L2.68157 10.6165C2.827 10.9632 3.17604 11.1036 3.46327 10.9325L5.52115 9.71694C5.90655 9.48876 6.3574 9.82665 6.3574 10.3488V21.4772C6.3574 22.2539 6.87732 22.8814 7.52086 22.8814H16.8286C17.4721 22.8814 17.9921 22.2539 17.9921 21.4772V10.3444C17.9921 9.82665 18.4429 9.48437 18.8283 9.71255L20.8862 10.9281C21.1734 11.1036 21.5225 10.9632 21.6679 10.6121L23.7512 5.59208C23.8967 5.24542 23.7803 4.81977 23.4931 4.64863Z" fill="black"/>
</svg>
