<svg width="28" height="26" viewBox="0 0 28 26" fill="none" xmlns="http://www.w3.org/2000/svg">
<path d="M14.1337 21.5062L14.0003 21.6437L13.8537 21.5062C7.52033 15.58 3.33366 11.6613 3.33366 7.6875C3.33366 4.9375 5.33366 2.875 8.00033 2.875C10.0537 2.875 12.0537 4.25 12.7603 6.12H15.2403C15.947 4.25 17.947 2.875 20.0003 2.875C22.667 2.875 24.667 4.9375 24.667 7.6875C24.667 11.6613 20.4803 15.58 14.1337 21.5062ZM20.0003 0.125C17.6803 0.125 15.4537 1.23875 14.0003 2.985C12.547 1.23875 10.3203 0.125 8.00033 0.125C3.89366 0.125 0.666992 3.43875 0.666992 7.6875C0.666992 12.8713 5.20033 17.12 12.067 23.5413L14.0003 25.3563L15.9337 23.5413C22.8003 17.12 27.3337 12.8713 27.3337 7.6875C27.3337 3.43875 24.107 0.125 20.0003 0.125Z" fill="black"/>
</svg>
